<svg version="1.1" xmlns="http://www.w3.org/2000/svg" viewBox="0 0 1154.405860900879 670.3601246843435" width="2308.811721801758" height="1340.720249368687">
  <!-- svg-source:excalidraw -->
  
  <defs>
    <style class="style-fonts">
      @font-face {
        font-family: "Virgil";
        src: url("https://excalidraw.com/Virgil.woff2");
      }
      @font-face {
        font-family: "Cascadia";
        src: url("https://excalidraw.com/Cascadia.woff2");
      }
      @font-face {
        font-family: "Assistant";
        src: url("https://excalidraw.com/Assistant-Regular.woff2");
      }
    </style>
    
  </defs>
  <rect x="0" y="0" width="1154.405860900879" height="670.3601246843435" fill="#ffffff"></rect><g transform="translate(10 11.143229166666629) rotate(0 95.54396057128906 22.5)"><text x="0" y="31.536" font-family="Virgil, Segoe UI Emoji" font-size="36px" fill="#f08c00" text-anchor="start" style="white-space: pre;" direction="ltr" dominant-baseline="alphabetic">NameSpace</text></g><g transform="translate(297.9013137817383 10.571614583333314) rotate(0 57.16797637939453 22.5)"><text x="0" y="31.536" font-family="Virgil, Segoe UI Emoji" font-size="36px" fill="#2f9e44" text-anchor="start" style="white-space: pre;" direction="ltr" dominant-baseline="alphabetic">Object</text></g><g transform="translate(611.1405029296875 10) rotate(0 44.71198272705078 22.5)"><text x="0" y="31.536" font-family="Virgil, Segoe UI Emoji" font-size="36px" fill="#1971c2" text-anchor="start" style="white-space: pre;" direction="ltr" dominant-baseline="alphabetic">Base</text></g><g transform="translate(952.1864547729492 11.71484375) rotate(0 68.21996307373047 22.5)"><text x="0" y="31.536" font-family="Virgil, Segoe UI Emoji" font-size="36px" fill="#9c36b5" text-anchor="start" style="white-space: pre;" direction="ltr" dominant-baseline="alphabetic">Modifier</text></g><g stroke-linecap="round" transform="translate(536.9010416666667 113.9892578125) rotate(0 29.732421875 27.78125)"><path d="M13.89 0 C23.45 0.3, 31.85 -0.19, 45.57 0 M13.89 0 C23.57 0.58, 30.88 1.22, 45.57 0 M45.57 0 C54.22 1.23, 58.36 3.43, 59.46 13.89 M45.57 0 C55.44 -0.18, 61.3 4.85, 59.46 13.89 M59.46 13.89 C58.65 17.75, 57.6 24.67, 59.46 41.67 M59.46 13.89 C59.71 19.54, 59.79 24.59, 59.46 41.67 M59.46 41.67 C60.23 51.43, 53.24 54.9, 45.57 55.56 M59.46 41.67 C59.05 48.67, 55.34 56.44, 45.57 55.56 M45.57 55.56 C40.43 55.82, 31.36 54.7, 13.89 55.56 M45.57 55.56 C36.25 55.78, 24.39 55.49, 13.89 55.56 M13.89 55.56 C4.45 54.58, 0.97 50.67, 0 41.67 M13.89 55.56 C5.39 57.34, -1.9 52.3, 0 41.67 M0 41.67 C1.72 35.29, 0.2 27.2, 0 13.89 M0 41.67 C-0.84 32.98, -0.47 23.04, 0 13.89 M0 13.89 C-1.04 2.79, 4.56 -0.77, 13.89 0 M0 13.89 C-1.4 4.13, 6.12 -1.57, 13.89 0" stroke="#a5d8ff" stroke-width="2" fill="none"></path></g><g transform="translate(532.1018625895183 84.4228515625) rotate(0 35.01597595214844 10)"><text x="0" y="14.016" font-family="Virgil, Segoe UI Emoji" font-size="16px" fill="#343a40" text-anchor="start" style="white-space: pre;" direction="ltr" dominant-baseline="alphabetic">Category</text></g><g stroke-linecap="round" transform="translate(627.4664713541667 113.9892578125) rotate(0 29.732421875 27.78125)"><path d="M13.89 0 C20.64 -1.7, 29.16 0.19, 45.57 0 M13.89 0 C23.82 -0.31, 32.52 -1.11, 45.57 0 M45.57 0 C53.44 -0.48, 59.68 6.12, 59.46 13.89 M45.57 0 C55.73 -0.33, 57.27 6.5, 59.46 13.89 M59.46 13.89 C60.32 25.39, 58.75 36.72, 59.46 41.67 M59.46 13.89 C58.67 23.88, 58.82 32.14, 59.46 41.67 M59.46 41.67 C59.27 52.9, 53.95 56.49, 45.57 55.56 M59.46 41.67 C59.67 53.09, 56.07 56.69, 45.57 55.56 M45.57 55.56 C30.96 56.12, 21.38 54.61, 13.89 55.56 M45.57 55.56 C32.97 55.64, 19.74 55.69, 13.89 55.56 M13.89 55.56 C3.59 56.96, 1.31 52.49, 0 41.67 M13.89 55.56 C4.1 53.79, 0.99 52.27, 0 41.67 M0 41.67 C-1.33 33.79, 1.43 28.63, 0 13.89 M0 41.67 C-0.02 34.84, 0.82 26.9, 0 13.89 M0 13.89 C0.98 6.5, 3.85 -1.28, 13.89 0 M0 13.89 C2.05 4.73, 4.38 -2.12, 13.89 0" stroke="#4dabf7" stroke-width="2" fill="none"></path></g><g transform="translate(622.6672922770183 84.4228515625) rotate(0 30.175979614257812 10)"><text x="0" y="14.016" font-family="Virgil, Segoe UI Emoji" font-size="16px" fill="#343a40" text-anchor="start" style="white-space: pre;" direction="ltr" dominant-baseline="alphabetic">Concept</text></g><g stroke-linecap="round" transform="translate(712.2639719645183 113.9892578125) rotate(0 29.732421875 27.78125)"><path d="M13.89 0 C22.79 1.57, 34.2 2.06, 45.57 0 M13.89 0 C21.3 0.53, 30.64 0.99, 45.57 0 M45.57 0 C56.27 0.81, 59.49 4.54, 59.46 13.89 M45.57 0 C57.13 1.16, 61.49 3.03, 59.46 13.89 M59.46 13.89 C58.54 20.25, 58.23 24.54, 59.46 41.67 M59.46 13.89 C60.31 23.93, 59.9 33.97, 59.46 41.67 M59.46 41.67 C57.73 49.81, 55.01 57.24, 45.57 55.56 M59.46 41.67 C59.52 50.26, 53.25 57.55, 45.57 55.56 M45.57 55.56 C34.16 55, 19.83 57, 13.89 55.56 M45.57 55.56 C37.95 54.97, 28.43 55.63, 13.89 55.56 M13.89 55.56 C3.92 55.35, -0.8 51.01, 0 41.67 M13.89 55.56 C2.89 56.2, 0.54 51.81, 0 41.67 M0 41.67 C-1.13 32.88, 1.82 24.71, 0 13.89 M0 41.67 C0.61 33.32, 0.34 25.88, 0 13.89 M0 13.89 C-1.45 3.81, 3.62 -1.39, 13.89 0 M0 13.89 C-0.94 5.42, 3.66 -0.33, 13.89 0" stroke="#228be6" stroke-width="2" fill="none"></path></g><g transform="translate(707.4647928873699 84.4228515625) rotate(0 33.19197082519531 10)"><text x="0" y="14.016" font-family="Virgil, Segoe UI Emoji" font-size="16px" fill="#343a40" text-anchor="start" style="white-space: pre;" direction="ltr" dominant-baseline="alphabetic">Property</text></g><g stroke-linecap="round" transform="translate(907.1784973144531 113.80696614583331) rotate(0 29.732421875 27.78125)"><path d="M13.89 0 C25.47 2.21, 35.01 0.72, 45.57 0 M13.89 0 C27.3 0.74, 39.92 -0.97, 45.57 0 M45.57 0 C55.69 1.51, 58.53 3.29, 59.46 13.89 M45.57 0 C52.82 2.3, 59.43 6.24, 59.46 13.89 M59.46 13.89 C58.04 25.6, 60.25 34.64, 59.46 41.67 M59.46 13.89 C60.42 23.81, 59.78 31.16, 59.46 41.67 M59.46 41.67 C59.14 50.14, 54.12 54.8, 45.57 55.56 M59.46 41.67 C57.34 48.87, 56.21 55.65, 45.57 55.56 M45.57 55.56 C33.55 54.22, 22.39 56.1, 13.89 55.56 M45.57 55.56 C34.54 55.81, 23.72 55.23, 13.89 55.56 M13.89 55.56 C3.64 57.4, -1.42 52.09, 0 41.67 M13.89 55.56 C6.44 57.21, 0.5 50.42, 0 41.67 M0 41.67 C-1.97 37.67, -0.7 29.2, 0 13.89 M0 41.67 C0.94 31.26, -0.57 22.98, 0 13.89 M0 13.89 C0.86 5.23, 4.49 -1.56, 13.89 0 M0 13.89 C0.39 6.33, 5.22 0.41, 13.89 0" stroke="#d0bfff" stroke-width="2" fill="none"></path></g><g transform="translate(908.6549377441406 84.24055989583331) rotate(0 28.2559814453125 10)"><text x="0" y="14.016" font-family="Virgil, Segoe UI Emoji" font-size="16px" fill="#343a40" text-anchor="start" style="white-space: pre;" direction="ltr" dominant-baseline="alphabetic">Variant</text></g><g stroke-linecap="round" transform="translate(997.7439270019531 113.80696614583331) rotate(0 29.732421875 27.78125)"><path d="M13.89 0 C28.42 -1.14, 40.31 1.56, 45.57 0 M13.89 0 C26.79 1, 38.38 -0.43, 45.57 0 M45.57 0 C53.08 2, 59.43 6.03, 59.46 13.89 M45.57 0 C56.1 -0.21, 58.93 3.02, 59.46 13.89 M59.46 13.89 C60.09 24.9, 57.72 37.58, 59.46 41.67 M59.46 13.89 C59.39 24.24, 59.19 35.01, 59.46 41.67 M59.46 41.67 C57.62 49.14, 56.03 55.64, 45.57 55.56 M59.46 41.67 C60.85 49.05, 53.18 54.86, 45.57 55.56 M45.57 55.56 C38.9 57.1, 30.47 56.04, 13.89 55.56 M45.57 55.56 C34.99 56.36, 24.7 56.02, 13.89 55.56 M13.89 55.56 C6.21 56.99, 0.43 50.49, 0 41.67 M13.89 55.56 C2.41 56.02, 1.75 48.73, 0 41.67 M0 41.67 C0.89 29.68, 0.34 21.93, 0 13.89 M0 41.67 C0.64 36.33, 0.14 29.6, 0 13.89 M0 13.89 C0.34 6.11, 5.15 0.35, 13.89 0 M0 13.89 C1.81 2.45, 3.95 1.69, 13.89 0" stroke="#9775fa" stroke-width="2" fill="none"></path></g><g transform="translate(1003.8603591918945 84.24055989583331) rotate(0 23.615989685058594 10)"><text x="0" y="14.016" font-family="Virgil, Segoe UI Emoji" font-size="16px" fill="#343a40" text-anchor="start" style="white-space: pre;" direction="ltr" dominant-baseline="alphabetic">State</text></g><g stroke-linecap="round" transform="translate(1084.941017150879 113.80696614583331) rotate(0 29.732421875 27.78125)"><path d="M13.89 0 C23.58 1.44, 27.97 0.6, 45.57 0 M13.89 0 C24.91 1.21, 37.67 0.91, 45.57 0 M45.57 0 C55.93 -0.18, 59 3.23, 59.46 13.89 M45.57 0 C56.96 0.93, 60.64 5.22, 59.46 13.89 M59.46 13.89 C60.94 22.98, 57.54 30.52, 59.46 41.67 M59.46 13.89 C58.44 20.22, 59.96 28.39, 59.46 41.67 M59.46 41.67 C60.67 49.29, 53.4 54.96, 45.57 55.56 M59.46 41.67 C58.19 50.53, 55.72 56.8, 45.57 55.56 M45.57 55.56 C34.2 56.75, 21.31 54.62, 13.89 55.56 M45.57 55.56 C33.94 56.46, 20.95 55.52, 13.89 55.56 M13.89 55.56 C2.7 55.96, 1.52 49.02, 0 41.67 M13.89 55.56 C6.53 54.82, -1.35 51.85, 0 41.67 M0 41.67 C-1.97 33.73, 0.37 29.67, 0 13.89 M0 41.67 C0.19 33.24, 0.28 23.51, 0 13.89 M0 13.89 C1.57 2.73, 4.04 1.47, 13.89 0 M0 13.89 C-1.93 2.59, 3.07 0.54, 13.89 0" stroke="#7950f2" stroke-width="2" fill="none"></path></g><g transform="translate(1093.9774475097656 84.24055989583331) rotate(0 20.69599151611328 10)"><text x="0" y="14.016" font-family="Virgil, Segoe UI Emoji" font-size="16px" fill="#343a40" text-anchor="start" style="white-space: pre;" direction="ltr" dominant-baseline="alphabetic">Scale</text></g><g stroke-linecap="round" transform="translate(18.553497314453125 114.02311197916663) rotate(0 29.732421875 27.78125)"><path d="M13.89 0 C26.36 -0.01, 36.44 -1.6, 45.57 0 M13.89 0 C23.77 0.45, 32.24 0.69, 45.57 0 M45.57 0 C55.57 -1.64, 59.04 3.01, 59.46 13.89 M45.57 0 C55.7 1, 58.49 5.13, 59.46 13.89 M59.46 13.89 C60.03 20.18, 60.9 26.41, 59.46 41.67 M59.46 13.89 C60.63 22.35, 59.57 33.08, 59.46 41.67 M59.46 41.67 C58.04 51.29, 54.55 55.94, 45.57 55.56 M59.46 41.67 C57.55 51.8, 56.13 56.47, 45.57 55.56 M45.57 55.56 C31.39 56.93, 22.27 56.49, 13.89 55.56 M45.57 55.56 C33.3 56.11, 21.59 56.64, 13.89 55.56 M13.89 55.56 C3.01 54.13, -0.07 49.7, 0 41.67 M13.89 55.56 C3.23 56.39, -0.45 52.3, 0 41.67 M0 41.67 C-1.66 36.08, -1.84 27.27, 0 13.89 M0 41.67 C1.11 33.33, 0 25.88, 0 13.89 M0 13.89 C1.75 4.97, 4.25 1.84, 13.89 0 M0 13.89 C1.58 5.64, 6.74 -1.69, 13.89 0" stroke="#ffa94d" stroke-width="2" fill="none"></path></g><g transform="translate(21.365936279296875 84.45670572916663) rotate(0 26.91998291015625 10)"><text x="0" y="14.016" font-family="Virgil, Segoe UI Emoji" font-size="16px" fill="#343a40" text-anchor="start" style="white-space: pre;" direction="ltr" dominant-baseline="alphabetic">System</text></g><g stroke-linecap="round" transform="translate(109.11892700195312 114.02311197916663) rotate(0 29.732421875 27.78125)"><path d="M13.89 0 C23.54 1.63, 34.44 1.76, 45.57 0 M13.89 0 C25.57 -1.08, 36.3 -1.06, 45.57 0 M45.57 0 C55.58 0.87, 58.62 5.06, 59.46 13.89 M45.57 0 C52.9 0.56, 57.25 5.21, 59.46 13.89 M59.46 13.89 C60.33 24.35, 57.68 33.25, 59.46 41.67 M59.46 13.89 C58.72 20.14, 59.29 26.22, 59.46 41.67 M59.46 41.67 C57.8 51.68, 55.96 56.35, 45.57 55.56 M59.46 41.67 C61.72 49.79, 54.39 53.75, 45.57 55.56 M45.57 55.56 C35.31 57.58, 23.68 54.93, 13.89 55.56 M45.57 55.56 C34.35 55.1, 24.7 55.21, 13.89 55.56 M13.89 55.56 C3.41 56.28, -0.39 52.12, 0 41.67 M13.89 55.56 C3.29 56.29, 0.39 49.12, 0 41.67 M0 41.67 C-0.42 30.17, 2.08 23.63, 0 13.89 M0 41.67 C0.94 36.12, -0.13 31.15, 0 13.89 M0 13.89 C1.37 5.51, 6.46 -1.47, 13.89 0 M0 13.89 C-2.11 6.9, 4.1 2.05, 13.89 0" stroke="#fd7e14" stroke-width="2" fill="none"></path></g><g transform="translate(114.65135955810547 84.45670572916663) rotate(0 24.199989318847656 10)"><text x="0" y="14.016" font-family="Virgil, Segoe UI Emoji" font-size="16px" fill="#343a40" text-anchor="start" style="white-space: pre;" direction="ltr" dominant-baseline="alphabetic">Theme</text></g><g stroke-linecap="round" transform="translate(318.73775227864587 113.7158203125) rotate(0 29.732421875 27.78125)"><path d="M13.89 0 C27.08 1.37, 35.88 -1.17, 45.57 0 M13.89 0 C23.92 0.36, 34.33 -0.4, 45.57 0 M45.57 0 C55.31 -1.32, 59.04 5.59, 59.46 13.89 M45.57 0 C56.91 -0.7, 58.12 5.01, 59.46 13.89 M59.46 13.89 C58.7 23.01, 57.48 35.01, 59.46 41.67 M59.46 13.89 C59.36 23.59, 60.04 35.25, 59.46 41.67 M59.46 41.67 C58.92 49.3, 54.33 56.39, 45.57 55.56 M59.46 41.67 C58.77 52.37, 54.41 57.47, 45.57 55.56 M45.57 55.56 C38.74 55.56, 30.19 55.04, 13.89 55.56 M45.57 55.56 C35.18 55.62, 25.4 55.52, 13.89 55.56 M13.89 55.56 C2.7 53.75, 1.68 51.93, 0 41.67 M13.89 55.56 C6.45 55.63, 1.39 53.08, 0 41.67 M0 41.67 C-1.88 33.53, 0.27 26.44, 0 13.89 M0 41.67 C-0.55 32.85, 0.83 22.6, 0 13.89 M0 13.89 C0.76 4.8, 6.04 -0.59, 13.89 0 M0 13.89 C0.57 5.31, 5.37 1.75, 13.89 0" stroke="#69db7c" stroke-width="2" fill="none"></path></g><g transform="translate(321.5501912434896 84.1494140625) rotate(0 29.56798553466797 10)"><text x="0" y="14.016" font-family="Virgil, Segoe UI Emoji" font-size="16px" fill="#343a40" text-anchor="start" style="white-space: pre;" direction="ltr" dominant-baseline="alphabetic">Element</text></g><g stroke-linecap="round"><g transform="translate(531.8076872492376 176.4046435229141) rotate(0 -13.193874032869815 13.646251049437552)"><path d="M0.46 -0.49 C-3.93 4.3, -21.87 24, -26.53 28.47 M-0.77 -1.8 C-5.29 2.72, -23.48 22.15, -27.55 26.96" stroke="#1e1e1e" stroke-width="2" fill="none"></path></g><g transform="translate(531.8076872492376 176.4046435229141) rotate(0 -13.193874032869815 13.646251049437552)"><path d="M-20.46 9.36 C-23.27 14.08, -22.61 17.47, -27.55 26.96 M-20.46 9.36 C-21.04 13.62, -24.03 17.04, -27.55 26.96" stroke="#1e1e1e" stroke-width="2" fill="none"></path></g><g transform="translate(531.8076872492376 176.4046435229141) rotate(0 -13.193874032869815 13.646251049437552)"><path d="M-10.8 18.04 C-16.29 20.37, -18.33 21.34, -27.55 26.96 M-10.8 18.04 C-13.53 20.38, -18.63 21.91, -27.55 26.96" stroke="#1e1e1e" stroke-width="2" fill="none"></path></g></g><mask></mask><g stroke-linecap="round" transform="translate(440.957189078283 214.61951546717165) rotate(0 30.766650883838338 19.8567708333334)"><path d="M9.93 0 C18.92 1.82, 30.26 -1.48, 51.6 0 M9.93 0 C18.43 -0.45, 27.46 0.01, 51.6 0 M51.6 0 C57.72 -1.57, 60.34 3.51, 61.53 9.93 M51.6 0 C60.26 -0.24, 62.93 1.07, 61.53 9.93 M61.53 9.93 C60.93 17.74, 60.73 23.81, 61.53 29.79 M61.53 9.93 C60.47 16.03, 62.21 21.54, 61.53 29.79 M61.53 29.79 C61.13 36.24, 57.1 38.73, 51.6 39.71 M61.53 29.79 C62.14 37.64, 57.32 37.98, 51.6 39.71 M51.6 39.71 C35.63 38.73, 22.04 39.38, 9.93 39.71 M51.6 39.71 C35.75 39.17, 21.69 39.68, 9.93 39.71 M9.93 39.71 C3.59 39.17, 0.26 34.95, 0 29.79 M9.93 39.71 C1.79 39, 0.29 37.36, 0 29.79 M0 29.79 C0.92 24.66, -1.27 16.77, 0 9.93 M0 29.79 C-0.69 23.36, -0.62 16.48, 0 9.93 M0 9.93 C-0.36 2.49, 3.7 1.04, 9.93 0 M0 9.93 C1.25 1.24, 1.79 0.92, 9.93 0" stroke="#1e1e1e" stroke-width="2" fill="none"></path></g><g transform="translate(452.1638576623167 224.47628630050502) rotate(0 19.559982299804688 10.000000000000028)"><text x="19.559982299804688" y="14.016" font-family="Virgil, Segoe UI Emoji" font-size="16px" fill="#1e1e1e" text-anchor="middle" style="white-space: pre;" direction="ltr" dominant-baseline="alphabetic">Color</text></g><g stroke-linecap="round" transform="translate(424.0222143308083 271.74151672979804) rotate(0 47.70162563131311 25)"><path d="M12.5 0 C32.26 -2.21, 56.12 -0.19, 82.9 0 M12.5 0 C33.13 -0.7, 55.4 0.8, 82.9 0 M82.9 0 C93.16 1.74, 95.48 6.05, 95.4 12.5 M82.9 0 C89.93 0.26, 94.29 2.38, 95.4 12.5 M95.4 12.5 C97.56 17.42, 96.92 24.04, 95.4 37.5 M95.4 12.5 C96.43 22.29, 95.57 29.84, 95.4 37.5 M95.4 37.5 C94.33 47.61, 91.19 50.56, 82.9 50 M95.4 37.5 C96.5 43.78, 91.27 50.62, 82.9 50 M82.9 50 C56.96 49.77, 32.6 51.16, 12.5 50 M82.9 50 C65.74 51.24, 47.37 50.41, 12.5 50 M12.5 50 C5.18 48.59, 1.17 47.55, 0 37.5 M12.5 50 C4.75 49.63, -1.52 47.2, 0 37.5 M0 37.5 C0.71 31.76, 1.32 24.76, 0 12.5 M0 37.5 C-0.01 31.58, -0.87 25.29, 0 12.5 M0 12.5 C-1.24 3.96, 5.34 1.82, 12.5 0 M0 12.5 C2.2 2.86, 4.58 -0.71, 12.5 0" stroke="#1e1e1e" stroke-width="2" fill="none"></path></g><g transform="translate(430.64387627803944 286.74151672979804) rotate(0 41.07996368408203 10)"><text x="41.07996368408203" y="14.016" font-family="Virgil, Segoe UI Emoji" font-size="16px" fill="#1e1e1e" text-anchor="middle" style="white-space: pre;" direction="ltr" dominant-baseline="alphabetic">typography</text></g><g stroke-linecap="round" transform="translate(432.22731218434365 339.1499763257576) rotate(0 39.49652777777783 25)"><path d="M12.5 0 C29.9 -0.23, 51.88 -1.57, 66.49 0 M12.5 0 C27 0.61, 42.69 -0.08, 66.49 0 M66.49 0 C74.99 1.67, 80.92 4.07, 78.99 12.5 M66.49 0 C74.11 -1.86, 77.48 5.89, 78.99 12.5 M78.99 12.5 C81.19 20.21, 81.07 29.16, 78.99 37.5 M78.99 12.5 C78.29 21.98, 79.43 30.6, 78.99 37.5 M78.99 37.5 C80.04 44.68, 73.45 49.37, 66.49 50 M78.99 37.5 C81.06 47.97, 75.77 49.67, 66.49 50 M66.49 50 C50.84 50.97, 36.96 50.07, 12.5 50 M66.49 50 C53.62 49.53, 42.59 49.84, 12.5 50 M12.5 50 C2.27 50.1, 1.52 46.63, 0 37.5 M12.5 50 C5.4 51.07, -0.17 44.77, 0 37.5 M0 37.5 C1.75 30.55, 0.9 24.42, 0 12.5 M0 37.5 C-0.87 29.54, 0.26 21.12, 0 12.5 M0 12.5 C0.8 3.21, 5.56 -0.71, 12.5 0 M0 12.5 C0.2 4.48, 4.07 -0.13, 12.5 0" stroke="#1e1e1e" stroke-width="2" fill="none"></path></g><g transform="translate(444.587861263391 354.1499763257576) rotate(0 27.13597869873047 10)"><text x="27.13597869873047" y="14.016" font-family="Virgil, Segoe UI Emoji" font-size="16px" fill="#1e1e1e" text-anchor="middle" style="white-space: pre;" direction="ltr" dominant-baseline="alphabetic">spacing</text></g><g stroke-linecap="round" transform="translate(432.22731218434353 406.5584359217172) rotate(0 39.49652777777777 25)"><path d="M12.5 0 C32.58 1.4, 48.25 1.14, 66.49 0 M12.5 0 C28.62 -0.38, 45.01 -0.93, 66.49 0 M66.49 0 C73.84 -0.7, 80.8 5.89, 78.99 12.5 M66.49 0 C74.5 1.04, 79.14 4.37, 78.99 12.5 M78.99 12.5 C77.49 20.68, 81.06 28.4, 78.99 37.5 M78.99 12.5 C78.64 19.56, 80 25.97, 78.99 37.5 M78.99 37.5 C80.22 46.33, 75.38 51.96, 66.49 50 M78.99 37.5 C81.07 47.53, 73.72 47.92, 66.49 50 M66.49 50 C55.4 49.97, 45.85 49.25, 12.5 50 M66.49 50 C44.91 48.96, 24.1 50.59, 12.5 50 M12.5 50 C5.86 48.12, -1.95 45.94, 0 37.5 M12.5 50 C3.53 49.21, 0.9 45.24, 0 37.5 M0 37.5 C-2.05 27.63, 0.26 19.54, 0 12.5 M0 37.5 C-0.72 30.25, 0.78 22.2, 0 12.5 M0 12.5 C-0.35 4.62, 3.38 -0.49, 12.5 0 M0 12.5 C1.5 3.86, 6.29 0.32, 12.5 0" stroke="#1e1e1e" stroke-width="2" fill="none"></path></g><g transform="translate(456.6758510705198 421.5584359217172) rotate(0 15.047988891601562 10)"><text x="15.047988891601562" y="14.016" font-family="Virgil, Segoe UI Emoji" font-size="16px" fill="#1e1e1e" text-anchor="middle" style="white-space: pre;" direction="ltr" dominant-baseline="alphabetic">size</text></g><g stroke-linecap="round" transform="translate(432.22731218434365 473.9668955176768) rotate(0 39.49652777777783 25)"><path d="M12.5 0 C26.51 0.62, 44.17 -0.82, 66.49 0 M12.5 0 C28.21 0.47, 42.72 0.1, 66.49 0 M66.49 0 C75.4 0.3, 80.34 2.9, 78.99 12.5 M66.49 0 C73.47 0.8, 80.04 4.43, 78.99 12.5 M78.99 12.5 C80.41 16.85, 77.64 24.02, 78.99 37.5 M78.99 12.5 C78.35 20.91, 79.29 29.21, 78.99 37.5 M78.99 37.5 C78.2 46.7, 75.28 51.54, 66.49 50 M78.99 37.5 C78.97 47.41, 74.46 49.88, 66.49 50 M66.49 50 C47.66 50.08, 26.96 52.21, 12.5 50 M66.49 50 C53.08 49.69, 39.48 49.76, 12.5 50 M12.5 50 C2.59 49.35, -0.68 45.96, 0 37.5 M12.5 50 C2.8 47.82, 1.11 47.11, 0 37.5 M0 37.5 C1.43 29.06, -0.04 22.78, 0 12.5 M0 37.5 C0.1 31.45, -0.39 26.6, 0 12.5 M0 12.5 C-1.04 5.09, 5.33 -1.12, 12.5 0 M0 12.5 C1.25 3.51, 3.21 -0.56, 12.5 0" stroke="#1e1e1e" stroke-width="2" fill="none"></path></g><g transform="translate(452.71585198604726 488.9668955176768) rotate(0 19.00798797607422 10)"><text x="19.00798797607422" y="14.016" font-family="Virgil, Segoe UI Emoji" font-size="16px" fill="#1e1e1e" text-anchor="middle" style="white-space: pre;" direction="ltr" dominant-baseline="alphabetic">layer</text></g><g stroke-linecap="round" transform="translate(432.22731218434353 541.3753551136364) rotate(0 39.49652777777777 25)"><path d="M12.5 0 C33.79 0.8, 53.12 -1.28, 66.49 0 M12.5 0 C28.49 0.09, 45.58 0.25, 66.49 0 M66.49 0 C74.18 -1.22, 79.38 4.88, 78.99 12.5 M66.49 0 C75.57 0.22, 79.91 2.53, 78.99 12.5 M78.99 12.5 C80.5 23.38, 79.96 30.74, 78.99 37.5 M78.99 12.5 C78.85 23.09, 78.92 32.01, 78.99 37.5 M78.99 37.5 C80.76 44.72, 74.6 51.46, 66.49 50 M78.99 37.5 C79.84 46.3, 72.67 50.85, 66.49 50 M66.49 50 C51.39 50.77, 37.56 49.77, 12.5 50 M66.49 50 C46.35 50.16, 28.03 48.95, 12.5 50 M12.5 50 C5.33 49.29, -0.22 47.52, 0 37.5 M12.5 50 C5.05 49.69, 0.67 44.61, 0 37.5 M0 37.5 C1.23 30.94, -2 27.52, 0 12.5 M0 37.5 C-0.04 31.26, 0.26 22.72, 0 12.5 M0 12.5 C0.98 3.18, 2.82 0.3, 12.5 0 M0 12.5 C-0.16 4.09, 4.43 -1.46, 12.5 0" stroke="#1e1e1e" stroke-width="2" fill="none"></path></g><g transform="translate(444.2358638879026 556.3753551136364) rotate(0 27.48797607421875 10)"><text x="27.48797607421875" y="14.016" font-family="Virgil, Segoe UI Emoji" font-size="16px" fill="#1e1e1e" text-anchor="middle" style="white-space: pre;" direction="ltr" dominant-baseline="alphabetic">shadow</text></g><g stroke-linecap="round" transform="translate(432.22731218434353 608.783814709596) rotate(0 39.49652777777777 25)"><path d="M12.5 0 C27.95 0.41, 48.26 0.96, 66.49 0 M12.5 0 C32.2 -0.14, 54.25 0.83, 66.49 0 M66.49 0 C73.68 0.14, 80.23 4.68, 78.99 12.5 M66.49 0 C76.02 -0.75, 78.69 5.36, 78.99 12.5 M78.99 12.5 C79.29 18.33, 80.76 27.18, 78.99 37.5 M78.99 12.5 C78.98 18.4, 79.25 26.03, 78.99 37.5 M78.99 37.5 C78.9 46.51, 73.93 51.36, 66.49 50 M78.99 37.5 C77.44 43.91, 74.15 48.39, 66.49 50 M66.49 50 C49.64 49.05, 35.84 50.42, 12.5 50 M66.49 50 C47.58 48.72, 29.75 49.89, 12.5 50 M12.5 50 C3 48.05, 0.29 46.39, 0 37.5 M12.5 50 C4.27 51.65, 1.45 46.53, 0 37.5 M0 37.5 C-0.8 32.7, 0.89 25.91, 0 12.5 M0 37.5 C0.06 30.76, 0.43 25.16, 0 12.5 M0 12.5 C-1.18 2.68, 2.28 -1.99, 12.5 0 M0 12.5 C1.95 4.58, 3.7 -1.7, 12.5 0" stroke="#1e1e1e" stroke-width="2" fill="none"></path></g><g transform="translate(439.4118587609495 623.783814709596) rotate(0 32.311981201171875 10)"><text x="32.311981201171875" y="14.016" font-family="Virgil, Segoe UI Emoji" font-size="16px" fill="#1e1e1e" text-anchor="middle" style="white-space: pre;" direction="ltr" dominant-baseline="alphabetic">duration</text></g><g transform="translate(405.8246133207074 477.4312263257575) rotate(0 27.229324494949537 -0.2485795454545041)" stroke="none"><path fill="#ffd43b" d="M 0,-5.30 Q 0,-5.30 2.75,-5.29 5.51,-5.27 8.64,-5.42 11.76,-5.57 14.11,-5.70 16.46,-5.83 19.29,-5.93 22.12,-6.03 24.53,-6.15 26.94,-6.27 29.43,-6.38 31.92,-6.48 34.50,-6.56 37.08,-6.64 39.42,-6.73 41.75,-6.82 43.88,-6.92 46.00,-7.01 48.23,-7.09 50.45,-7.17 52.42,-7.44 54.39,-7.71 55.54,-7.53 56.70,-7.35 57.73,-6.81 58.77,-6.27 59.58,-5.43 60.39,-4.59 60.89,-3.54 61.39,-2.48 61.53,-1.32 61.66,-0.16 61.42,0.97 61.18,2.11 60.59,3.12 59.99,4.12 59.11,4.89 58.23,5.65 57.15,6.09 56.07,6.53 54.90,6.60 53.73,6.68 52.61,6.38 51.48,6.07 50.51,5.43 49.54,4.78 48.82,3.86 48.11,2.93 47.72,1.83 47.34,0.73 47.33,-0.43 47.32,-1.60 47.69,-2.71 48.05,-3.82 48.75,-4.75 49.45,-5.69 50.41,-6.35 51.37,-7.02 52.49,-7.34 53.61,-7.66 54.78,-7.61 55.95,-7.55 57.03,-7.13 58.12,-6.71 59.02,-5.96 59.91,-5.21 60.52,-4.21 61.13,-3.22 61.40,-2.08 61.66,-0.94 61.54,0.21 61.42,1.37 60.94,2.43 60.46,3.50 59.66,4.35 58.87,5.21 57.84,5.76 56.81,6.32 55.66,6.52 54.51,6.71 54.52,6.71 54.52,6.71 52.48,6.94 50.45,7.17 48.23,7.09 46.00,7.01 43.88,6.92 41.75,6.82 39.42,6.73 37.08,6.64 34.50,6.56 31.92,6.48 29.43,6.38 26.94,6.27 24.53,6.15 22.12,6.03 19.29,5.93 16.46,5.83 14.11,5.70 11.76,5.57 8.64,5.42 5.51,5.27 2.75,5.29 0,5.30 -0.63,5.23 -1.27,5.15 -1.86,4.92 -2.46,4.70 -2.99,4.33 -3.52,3.97 -3.94,3.49 -4.36,3.01 -4.66,2.44 -4.96,1.88 -5.11,1.26 -5.27,0.63 -5.27,-0.00 -5.27,-0.64 -5.11,-1.26 -4.96,-1.88 -4.66,-2.44 -4.36,-3.01 -3.94,-3.49 -3.52,-3.97 -2.99,-4.33 -2.46,-4.70 -1.86,-4.92 -1.27,-5.15 -0.63,-5.23 0.00,-5.30 0.00,-5.30 L 0,-5.30 Z"></path></g><g transform="translate(406.1244870580815 465.4165482954544) rotate(0 26.775978088378906 10)"><text x="0" y="14.016" font-family="Virgil, Segoe UI Emoji" font-size="16px" fill="#1e1e1e" text-anchor="start" style="white-space: pre;" direction="ltr" dominant-baseline="alphabetic">z-index</text></g><g stroke-linecap="round" transform="translate(708.3804450757584 216.19582544191883) rotate(0 30.766650883838338 15)"><path d="M7.5 0 C25.54 -0.48, 38.64 -1.49, 54.03 0 M7.5 0 C23.98 -0.11, 41.1 -1.04, 54.03 0 M54.03 0 C57.42 -0.79, 61.55 4.06, 61.53 7.5 M54.03 0 C58.24 0.32, 61.95 0.95, 61.53 7.5 M61.53 7.5 C61.97 13.08, 62.85 18.24, 61.53 22.5 M61.53 7.5 C62.05 11.37, 61.25 13.82, 61.53 22.5 M61.53 22.5 C62.81 27.05, 57.6 30.72, 54.03 30 M61.53 22.5 C60.95 28.24, 61.18 30.38, 54.03 30 M54.03 30 C43.9 31.3, 33.01 29.13, 7.5 30 M54.03 30 C43.68 30.83, 33.71 29.39, 7.5 30 M7.5 30 C2.16 30.32, -1.75 25.6, 0 22.5 M7.5 30 C0.69 27.88, -0.09 25.27, 0 22.5 M0 22.5 C-0.5 19, 0.79 12.13, 0 7.5 M0 22.5 C0.3 17.98, 0.3 12.61, 0 7.5 M0 7.5 C-1.92 3.51, 2.35 -1.37, 7.5 0 M0 7.5 C1.39 2.7, 4.8 0.63, 7.5 0" stroke="#1e1e1e" stroke-width="2" fill="none"></path></g><g transform="translate(721.2351086549093 221.19582544191883) rotate(0 17.9119873046875 10)"><text x="17.9119873046875" y="14.016" font-family="Virgil, Segoe UI Emoji" font-size="16px" fill="#1e1e1e" text-anchor="middle" style="white-space: pre;" direction="ltr" dominant-baseline="alphabetic">text</text></g><g stroke-linecap="round" transform="translate(691.4454703282835 265.2232086489896) rotate(0 47.70162563131311 25)"><path d="M12.5 0 C31.52 0.65, 49.81 0.6, 82.9 0 M12.5 0 C34.44 0.09, 58 1.27, 82.9 0 M82.9 0 C90.55 0.28, 95.77 2.82, 95.4 12.5 M82.9 0 C93.2 -0.09, 93.1 4.85, 95.4 12.5 M95.4 12.5 C94.04 20.38, 94.38 28.07, 95.4 37.5 M95.4 12.5 C95.93 21.64, 94.58 31.59, 95.4 37.5 M95.4 37.5 C94.9 46.48, 93.1 50.33, 82.9 50 M95.4 37.5 C93.69 47.21, 92.32 50.4, 82.9 50 M82.9 50 C56.42 49.77, 33.02 49.62, 12.5 50 M82.9 50 C55.78 49.73, 28.13 48.62, 12.5 50 M12.5 50 C2.59 48.16, -0.08 43.9, 0 37.5 M12.5 50 C4.21 47.95, -0.75 44.86, 0 37.5 M0 37.5 C0.06 26.75, 1.78 19.56, 0 12.5 M0 37.5 C-1.02 30.14, -0.14 21.08, 0 12.5 M0 12.5 C1.21 4.34, 6.16 0.55, 12.5 0 M0 12.5 C0.23 6.43, 3.73 1.38, 12.5 0" stroke="#343a40" stroke-width="2" fill="none"></path></g><g transform="translate(724.0991070679952 280.2232086489896) rotate(0 15.047988891601562 10)"><text x="15.047988891601562" y="14.016" font-family="Virgil, Segoe UI Emoji" font-size="16px" fill="#343a40" text-anchor="middle" style="white-space: pre;" direction="ltr" dominant-baseline="alphabetic">size</text></g><g stroke-linecap="round" transform="translate(688.3559816919197 334.2505918560604) rotate(0 50.79111426767696 25)"><path d="M12.5 0 C35.84 1.14, 56.86 -1.59, 89.08 0 M12.5 0 C32.11 -0.46, 52.6 -1.27, 89.08 0 M89.08 0 C99.12 -0.08, 99.58 4.76, 101.58 12.5 M89.08 0 C97.11 2.03, 100.32 2.35, 101.58 12.5 M101.58 12.5 C102.92 20, 100.62 30.55, 101.58 37.5 M101.58 12.5 C101.15 19.76, 102.34 26.54, 101.58 37.5 M101.58 37.5 C100.09 47.03, 98.36 50.35, 89.08 50 M101.58 37.5 C102.83 45.77, 96.16 48.22, 89.08 50 M89.08 50 C67.18 50.8, 40.75 49.66, 12.5 50 M89.08 50 C64.08 48.35, 40.62 48.3, 12.5 50 M12.5 50 C4.2 48.21, -0.65 44.98, 0 37.5 M12.5 50 C5.74 51.01, -2.01 46.03, 0 37.5 M0 37.5 C0.06 32.43, -1.9 24.43, 0 12.5 M0 37.5 C0.62 28.82, 1.02 20.25, 0 12.5 M0 12.5 C0.2 6.13, 3.78 1.2, 12.5 0 M0 12.5 C-0.51 2.94, 2.46 -1.1, 12.5 0" stroke="#1e1e1e" stroke-width="2" fill="none"></path></g><g transform="translate(697.1231244019796 349.2505918560604) rotate(0 42.02397155761719 10)"><text x="42.02397155761719" y="14.016" font-family="Virgil, Segoe UI Emoji" font-size="16px" fill="#1e1e1e" text-anchor="middle" style="white-space: pre;" direction="ltr" dominant-baseline="alphabetic">background</text></g><g stroke-linecap="round" transform="translate(699.6505681818189 403.2779750631312) rotate(0 39.49652777777783 25)"><path d="M12.5 0 C30.9 0.45, 52.43 -0.25, 66.49 0 M12.5 0 C30.3 0.33, 45.39 0.66, 66.49 0 M66.49 0 C74.56 1.76, 77.9 2.58, 78.99 12.5 M66.49 0 C75.65 -1.43, 80.41 5.88, 78.99 12.5 M78.99 12.5 C78.44 17.46, 79.61 24.78, 78.99 37.5 M78.99 12.5 C78.48 21.4, 79.7 29.29, 78.99 37.5 M78.99 37.5 C80.08 45.78, 73.73 48.45, 66.49 50 M78.99 37.5 C79.17 45.83, 74.84 51.9, 66.49 50 M66.49 50 C48.47 48.16, 27.9 48.33, 12.5 50 M66.49 50 C55.28 48.58, 43.71 49.05, 12.5 50 M12.5 50 C5.54 50.88, -1.75 46.01, 0 37.5 M12.5 50 C2.4 52.18, 0.56 46.17, 0 37.5 M0 37.5 C1.22 29.22, -1.16 22.45, 0 12.5 M0 37.5 C-0.15 30.77, -0.44 22.67, 0 12.5 M0 12.5 C-0.45 3.1, 2.69 -0.96, 12.5 0 M0 12.5 C-0.11 6.4, 3.8 -0.15, 12.5 0" stroke="#1e1e1e" stroke-width="2" fill="none"></path></g><g transform="translate(715.6671154908468 418.2779750631312) rotate(0 23.47998046875 10)"><text x="23.47998046875" y="14.016" font-family="Virgil, Segoe UI Emoji" font-size="16px" fill="#1e1e1e" text-anchor="middle" style="white-space: pre;" direction="ltr" dominant-baseline="alphabetic">weight</text></g><g stroke-linecap="round" transform="translate(699.6505681818189 472.30535827020196) rotate(0 39.49652777777783 25)"><path d="M12.5 0 C29.01 0.55, 43.62 1.89, 66.49 0 M12.5 0 C28.36 0.72, 43.93 -0.95, 66.49 0 M66.49 0 C75.54 -1.25, 80.22 5.66, 78.99 12.5 M66.49 0 C73.81 -0.93, 80.46 3.65, 78.99 12.5 M78.99 12.5 C79.73 20.07, 79.41 22.43, 78.99 37.5 M78.99 12.5 C79.65 21.46, 78.56 29.71, 78.99 37.5 M78.99 37.5 C79.15 45.83, 74.83 51.66, 66.49 50 M78.99 37.5 C79.91 44.44, 74.43 50.37, 66.49 50 M66.49 50 C53.17 49.49, 41.6 49.61, 12.5 50 M66.49 50 C55.8 50.21, 42.87 49.86, 12.5 50 M12.5 50 C2.63 51.89, 0.49 46.13, 0 37.5 M12.5 50 C4.75 48.09, -2.21 47, 0 37.5 M0 37.5 C0.34 32.19, 0.72 23.08, 0 12.5 M0 37.5 C-0.18 27.01, -0.69 17.1, 0 12.5 M0 12.5 C-0.09 6.1, 3.85 -0.13, 12.5 0 M0 12.5 C0.08 2.11, 5.59 -1.35, 12.5 0" stroke="#1e1e1e" stroke-width="2" fill="none"></path></g><g transform="translate(714.8431179932882 487.30535827020196) rotate(0 24.303977966308594 10)"><text x="24.303977966308594" y="14.016" font-family="Virgil, Segoe UI Emoji" font-size="16px" fill="#1e1e1e" text-anchor="middle" style="white-space: pre;" direction="ltr" dominant-baseline="alphabetic">border</text></g><g stroke-linecap="round" transform="translate(699.6505681818189 541.3327414772727) rotate(0 39.49652777777783 25)"><path d="M12.5 0 C29.61 -2.46, 47.47 -0.73, 66.49 0 M12.5 0 C33.81 -0.2, 55.03 1.17, 66.49 0 M66.49 0 C73.94 -0.81, 80.27 3.71, 78.99 12.5 M66.49 0 C73.18 0.83, 78.41 4.91, 78.99 12.5 M78.99 12.5 C80.23 23.27, 79.38 33.24, 78.99 37.5 M78.99 12.5 C78.93 19.93, 78.86 28.19, 78.99 37.5 M78.99 37.5 C79.79 44.62, 74.48 50.32, 66.49 50 M78.99 37.5 C76.98 43.65, 73.02 47.88, 66.49 50 M66.49 50 C48.73 49.36, 33.68 51.38, 12.5 50 M66.49 50 C47.15 50.99, 29.59 50.19, 12.5 50 M12.5 50 C4.67 48.34, -1.92 46.84, 0 37.5 M12.5 50 C3.99 48.43, 1.39 46.03, 0 37.5 M0 37.5 C1.9 27.12, 1.13 17.06, 0 12.5 M0 37.5 C0.14 32.31, 0.03 25.11, 0 12.5 M0 12.5 C0.07 2.38, 5.4 -1.18, 12.5 0 M0 12.5 C-1.16 5.68, 4.7 -1.84, 12.5 0" stroke="#1e1e1e" stroke-width="2" fill="none"></path></g><g transform="translate(712.0111172608663 546.3327414772727) rotate(0 27.13597869873047 20)"><text x="27.13597869873047" y="14.016" font-family="Virgil, Segoe UI Emoji" font-size="16px" fill="#1e1e1e" text-anchor="middle" style="white-space: pre;" direction="ltr" dominant-baseline="alphabetic">letter-</text><text x="27.13597869873047" y="34.016" font-family="Virgil, Segoe UI Emoji" font-size="16px" fill="#1e1e1e" text-anchor="middle" style="white-space: pre;" direction="ltr" dominant-baseline="alphabetic">spacing</text></g><g stroke-linecap="round" transform="translate(699.6505681818189 610.3601246843435) rotate(0 39.49652777777783 25)"><path d="M12.5 0 C25.06 -1.02, 32.52 0.78, 66.49 0 M12.5 0 C24.89 -0.81, 38.8 -0.63, 66.49 0 M66.49 0 C73.39 0.72, 78.49 4.81, 78.99 12.5 M66.49 0 C76.97 0.38, 77.28 5.54, 78.99 12.5 M78.99 12.5 C78.98 20.09, 77.49 30.01, 78.99 37.5 M78.99 12.5 C79.39 19.39, 78.82 27.65, 78.99 37.5 M78.99 37.5 C77.25 43.93, 73.25 48.16, 66.49 50 M78.99 37.5 C78.9 43.61, 74.87 47.95, 66.49 50 M66.49 50 C52.93 48.62, 37.79 48.83, 12.5 50 M66.49 50 C45.43 49.25, 22.91 50.58, 12.5 50 M12.5 50 C4.01 48.63, 1.21 46, 0 37.5 M12.5 50 C6.46 50.63, 0.23 48.1, 0 37.5 M0 37.5 C-1.22 29, -1.11 23.37, 0 12.5 M0 37.5 C0.07 26.68, 0.66 17.07, 0 12.5 M0 12.5 C-1.01 5.49, 4.63 -1.6, 12.5 0 M0 12.5 C2.07 5.51, 3.96 -1.81, 12.5 0" stroke="#1e1e1e" stroke-width="2" fill="none"></path></g><g transform="translate(706.8351147584249 625.3601246843435) rotate(0 32.311981201171875 10)"><text x="32.311981201171875" y="14.016" font-family="Virgil, Segoe UI Emoji" font-size="16px" fill="#1e1e1e" text-anchor="middle" style="white-space: pre;" direction="ltr" dominant-baseline="alphabetic">duration</text></g><g stroke-linecap="round"><g transform="translate(738.5077482534764 181.38768840425536) rotate(0 -1.5113457833632538 12.121753177922727)"><path d="M-0.03 0.33 C-0.44 4.47, -2.17 20.76, -2.69 24.69 M-0.71 0.03 C-1.15 4.04, -2.47 19.91, -2.95 23.96" stroke="#343a40" stroke-width="2" fill="none"></path></g><g transform="translate(738.5077482534764 181.38768840425536) rotate(0 -1.5113457833632538 12.121753177922727)"><path d="M-5.98 12.12 C-4.84 15.55, -3.93 18.06, -2.95 23.96 M-5.98 12.12 C-5.38 14.88, -4.78 17.69, -2.95 23.96" stroke="#343a40" stroke-width="2" fill="none"></path></g><g transform="translate(738.5077482534764 181.38768840425536) rotate(0 -1.5113457833632538 12.121753177922727)"><path d="M2.34 12.94 C1.33 16.16, 0.09 18.46, -2.95 23.96 M2.34 12.94 C0.97 15.46, -0.41 18.08, -2.95 23.96" stroke="#343a40" stroke-width="2" fill="none"></path></g></g><mask></mask><g stroke-linecap="round" transform="translate(561.8082780934346 320.61501736111086) rotate(0 43.566524621212125 25)"><path d="M12.5 0 C30.13 0.74, 50.5 -0.41, 74.63 0 M12.5 0 C30.98 -0.2, 49.67 0.73, 74.63 0 M74.63 0 C82.58 0.49, 86.25 2.23, 87.13 12.5 M74.63 0 C81.19 -0.04, 86.56 4.3, 87.13 12.5 M87.13 12.5 C86.42 21.52, 87.64 29.55, 87.13 37.5 M87.13 12.5 C87.35 20.98, 86.73 30.12, 87.13 37.5 M87.13 37.5 C88.47 44.34, 81.27 48.4, 74.63 50 M87.13 37.5 C89.24 44.74, 81.71 48.52, 74.63 50 M74.63 50 C51.63 48.32, 27.39 51.61, 12.5 50 M74.63 50 C50.66 48.78, 25.84 49.03, 12.5 50 M12.5 50 C5.68 50.86, -0.33 45.53, 0 37.5 M12.5 50 C4.42 51.99, -0.61 46.31, 0 37.5 M0 37.5 C0.34 28.16, 1.26 19.13, 0 12.5 M0 37.5 C-0.7 32.26, 0.07 26.52, 0 12.5 M0 12.5 C1.54 2.62, 5.39 -0.05, 12.5 0 M0 12.5 C0.38 1.95, 2.61 -2.02, 12.5 0" stroke="#1e1e1e" stroke-width="2" fill="none"></path></g><g transform="translate(570.870827800096 335.61501736111086) rotate(0 34.50397491455078 10)"><text x="34.50397491455078" y="14.016" font-family="Virgil, Segoe UI Emoji" font-size="16px" fill="#1e1e1e" text-anchor="middle" style="white-space: pre;" direction="ltr" dominant-baseline="alphabetic">feedback</text></g><g stroke-linecap="round" transform="translate(557.6731770833337 393.6121764520201) rotate(0 47.70162563131311 25)"><path d="M12.5 0 C36.11 -1.56, 60.22 -0.59, 82.9 0 M12.5 0 C33.44 -0.41, 54.33 -1.62, 82.9 0 M82.9 0 C89.69 -0.03, 94.91 4.28, 95.4 12.5 M82.9 0 C92.09 0.29, 94.12 3.31, 95.4 12.5 M95.4 12.5 C96.5 20.08, 94.6 29.61, 95.4 37.5 M95.4 12.5 C95.99 18.47, 94.48 25.13, 95.4 37.5 M95.4 37.5 C97.23 44.88, 90.14 48.71, 82.9 50 M95.4 37.5 C97.33 45.75, 90.18 50.95, 82.9 50 M82.9 50 C68.67 49.19, 48.68 52.25, 12.5 50 M82.9 50 C67.17 50.14, 49.77 49.56, 12.5 50 M12.5 50 C4.39 51.73, -0.53 46.24, 0 37.5 M12.5 50 C5.78 49.87, -0.69 46.21, 0 37.5 M0 37.5 C-1.37 29.86, 0.92 21.24, 0 12.5 M0 37.5 C0.76 27.37, 0.6 18.76, 0 12.5 M0 12.5 C0.33 2.24, 2.81 -1.76, 12.5 0 M0 12.5 C0.23 5.38, 5.3 1.75, 12.5 0" stroke="#343a40" stroke-width="2" fill="none"></path></g><g transform="translate(581.5828105271469 408.6121764520201) rotate(0 23.7919921875 10)"><text x="23.7919921875" y="14.016" font-family="Virgil, Segoe UI Emoji" font-size="16px" fill="#343a40" text-anchor="middle" style="white-space: pre;" direction="ltr" dominant-baseline="alphabetic">action</text></g><g stroke-linecap="round" transform="translate(554.5836884469699 466.60933554292933) rotate(0 50.7911142676769 25)"><path d="M12.5 0 C28.89 -0.78, 47.14 -0.1, 89.08 0 M12.5 0 C36.56 0.73, 61.92 0.8, 89.08 0 M89.08 0 C98.15 0.25, 100.46 3.42, 101.58 12.5 M89.08 0 C98.11 0.55, 101.82 5.36, 101.58 12.5 M101.58 12.5 C100.84 18.53, 101.53 27.16, 101.58 37.5 M101.58 12.5 C102.28 17.66, 100.82 23.13, 101.58 37.5 M101.58 37.5 C103.25 45.76, 96.5 50.83, 89.08 50 M101.58 37.5 C99.98 46.33, 99.6 52.27, 89.08 50 M89.08 50 C70.46 52.08, 53.65 52.12, 12.5 50 M89.08 50 C62.94 50.75, 36.31 50.09, 12.5 50 M12.5 50 C5.57 49.89, -0.6 46.16, 0 37.5 M12.5 50 C4.07 51.43, 0.17 44.44, 0 37.5 M0 37.5 C1.35 30.39, 1.86 24.66, 0 12.5 M0 37.5 C0.01 30.97, -0.83 25.49, 0 12.5 M0 12.5 C0.2 5.22, 5.15 1.52, 12.5 0 M0 12.5 C-1.6 2.4, 4.19 2.04, 12.5 0" stroke="#1e1e1e" stroke-width="2" fill="none"></path></g><g transform="translate(577.662819987596 481.60933554292933) rotate(0 27.71198272705078 10)"><text x="27.71198272705078" y="14.016" font-family="Virgil, Segoe UI Emoji" font-size="16px" fill="#1e1e1e" text-anchor="middle" style="white-space: pre;" direction="ltr" dominant-baseline="alphabetic">heading</text></g><g stroke-linecap="round"><g transform="translate(651.2594302398991 178.74120107323228) rotate(0 -31.419252115029508 65.81044823232324)"><path d="M-1.1 0.44 C-3.79 13.33, -4.96 54.38, -15.22 76.25 C-25.48 98.13, -54.53 122.56, -62.65 131.69 M0.52 -0.37 C-1.86 12.26, -2.19 52.29, -12.83 74.52 C-23.47 96.76, -54.75 123.49, -63.31 133.05" stroke="#343a40" stroke-width="2" fill="none"></path></g><g transform="translate(651.2594302398991 178.74120107323228) rotate(0 -31.419252115029508 65.81044823232324)"><path d="M-52.73 110.4 C-56.19 117.84, -59.68 127.72, -63.31 133.05 M-52.73 110.4 C-56.28 116.68, -59.11 123.56, -63.31 133.05" stroke="#343a40" stroke-width="2" fill="none"></path></g><g transform="translate(651.2594302398991 178.74120107323228) rotate(0 -31.419252115029508 65.81044823232324)"><path d="M-40.65 122.5 C-48.56 125.26, -56.62 130.57, -63.31 133.05 M-40.65 122.5 C-47.78 125.02, -54.31 128.2, -63.31 133.05" stroke="#343a40" stroke-width="2" fill="none"></path></g></g><mask></mask></svg>