<svg version="1.1" xmlns="http://www.w3.org/2000/svg" viewBox="0 0 1154.405860900879 179.58561197916663" width="2308.811721801758" height="359.17122395833326">
  <!-- svg-source:excalidraw -->
  
  <defs>
    <style class="style-fonts">
      @font-face {
        font-family: "Virgil";
        src: url("https://excalidraw.com/Virgil.woff2");
      }
      @font-face {
        font-family: "Cascadia";
        src: url("https://excalidraw.com/Cascadia.woff2");
      }
      @font-face {
        font-family: "Assistant";
        src: url("https://excalidraw.com/Assistant-Regular.woff2");
      }
    </style>
    
  </defs>
  <rect x="0" y="0" width="1154.405860900879" height="179.58561197916663" fill="#ffffff"></rect><g transform="translate(10 11.143229166666629) rotate(0 95.54396057128906 22.5)"><text x="0" y="31.536" font-family="Virgil, Segoe UI Emoji" font-size="36px" fill="#f08c00" text-anchor="start" style="white-space: pre;" direction="ltr" dominant-baseline="alphabetic">NameSpace</text></g><g transform="translate(297.9013137817383 10.571614583333314) rotate(0 57.16797637939453 22.5)"><text x="0" y="31.536" font-family="Virgil, Segoe UI Emoji" font-size="36px" fill="#2f9e44" text-anchor="start" style="white-space: pre;" direction="ltr" dominant-baseline="alphabetic">Object</text></g><g transform="translate(611.1405029296875 10) rotate(0 44.71198272705078 22.5)"><text x="0" y="31.536" font-family="Virgil, Segoe UI Emoji" font-size="36px" fill="#1971c2" text-anchor="start" style="white-space: pre;" direction="ltr" dominant-baseline="alphabetic">Base</text></g><g transform="translate(952.1864547729492 11.71484375) rotate(0 68.21996307373047 22.5)"><text x="0" y="31.536" font-family="Virgil, Segoe UI Emoji" font-size="36px" fill="#9c36b5" text-anchor="start" style="white-space: pre;" direction="ltr" dominant-baseline="alphabetic">Modifier</text></g><g stroke-linecap="round" transform="translate(536.9010416666667 113.9892578125) rotate(0 29.732421875 27.78125)"><path d="M13.89 0 C23.45 0.3, 31.85 -0.19, 45.57 0 M13.89 0 C23.57 0.58, 30.88 1.22, 45.57 0 M45.57 0 C54.22 1.23, 58.36 3.43, 59.46 13.89 M45.57 0 C55.44 -0.18, 61.3 4.85, 59.46 13.89 M59.46 13.89 C58.65 17.75, 57.6 24.67, 59.46 41.67 M59.46 13.89 C59.71 19.54, 59.79 24.59, 59.46 41.67 M59.46 41.67 C60.23 51.43, 53.24 54.9, 45.57 55.56 M59.46 41.67 C59.05 48.67, 55.34 56.44, 45.57 55.56 M45.57 55.56 C40.43 55.82, 31.36 54.7, 13.89 55.56 M45.57 55.56 C36.25 55.78, 24.39 55.49, 13.89 55.56 M13.89 55.56 C4.45 54.58, 0.97 50.67, 0 41.67 M13.89 55.56 C5.39 57.34, -1.9 52.3, 0 41.67 M0 41.67 C1.72 35.29, 0.2 27.2, 0 13.89 M0 41.67 C-0.84 32.98, -0.47 23.04, 0 13.89 M0 13.89 C-1.04 2.79, 4.56 -0.77, 13.89 0 M0 13.89 C-1.4 4.13, 6.12 -1.57, 13.89 0" stroke="#a5d8ff" stroke-width="2" fill="none"></path></g><g transform="translate(532.1018625895183 84.4228515625) rotate(0 35.01597595214844 10)"><text x="0" y="14.016" font-family="Virgil, Segoe UI Emoji" font-size="16px" fill="#343a40" text-anchor="start" style="white-space: pre;" direction="ltr" dominant-baseline="alphabetic">Category</text></g><g stroke-linecap="round" transform="translate(627.4664713541667 113.9892578125) rotate(0 29.732421875 27.78125)"><path d="M13.89 0 C20.64 -1.7, 29.16 0.19, 45.57 0 M13.89 0 C23.82 -0.31, 32.52 -1.11, 45.57 0 M45.57 0 C53.44 -0.48, 59.68 6.12, 59.46 13.89 M45.57 0 C55.73 -0.33, 57.27 6.5, 59.46 13.89 M59.46 13.89 C60.32 25.39, 58.75 36.72, 59.46 41.67 M59.46 13.89 C58.67 23.88, 58.82 32.14, 59.46 41.67 M59.46 41.67 C59.27 52.9, 53.95 56.49, 45.57 55.56 M59.46 41.67 C59.67 53.09, 56.07 56.69, 45.57 55.56 M45.57 55.56 C30.96 56.12, 21.38 54.61, 13.89 55.56 M45.57 55.56 C32.97 55.64, 19.74 55.69, 13.89 55.56 M13.89 55.56 C3.59 56.96, 1.31 52.49, 0 41.67 M13.89 55.56 C4.1 53.79, 0.99 52.27, 0 41.67 M0 41.67 C-1.33 33.79, 1.43 28.63, 0 13.89 M0 41.67 C-0.02 34.84, 0.82 26.9, 0 13.89 M0 13.89 C0.98 6.5, 3.85 -1.28, 13.89 0 M0 13.89 C2.05 4.73, 4.38 -2.12, 13.89 0" stroke="#4dabf7" stroke-width="2" fill="none"></path></g><g transform="translate(622.6672922770183 84.4228515625) rotate(0 30.175979614257812 10)"><text x="0" y="14.016" font-family="Virgil, Segoe UI Emoji" font-size="16px" fill="#343a40" text-anchor="start" style="white-space: pre;" direction="ltr" dominant-baseline="alphabetic">Concept</text></g><g stroke-linecap="round" transform="translate(712.2639719645183 113.9892578125) rotate(0 29.732421875 27.78125)"><path d="M13.89 0 C22.79 1.57, 34.2 2.06, 45.57 0 M13.89 0 C21.3 0.53, 30.64 0.99, 45.57 0 M45.57 0 C56.27 0.81, 59.49 4.54, 59.46 13.89 M45.57 0 C57.13 1.16, 61.49 3.03, 59.46 13.89 M59.46 13.89 C58.54 20.25, 58.23 24.54, 59.46 41.67 M59.46 13.89 C60.31 23.93, 59.9 33.97, 59.46 41.67 M59.46 41.67 C57.73 49.81, 55.01 57.24, 45.57 55.56 M59.46 41.67 C59.52 50.26, 53.25 57.55, 45.57 55.56 M45.57 55.56 C34.16 55, 19.83 57, 13.89 55.56 M45.57 55.56 C37.95 54.97, 28.43 55.63, 13.89 55.56 M13.89 55.56 C3.92 55.35, -0.8 51.01, 0 41.67 M13.89 55.56 C2.89 56.2, 0.54 51.81, 0 41.67 M0 41.67 C-1.13 32.88, 1.82 24.71, 0 13.89 M0 41.67 C0.61 33.32, 0.34 25.88, 0 13.89 M0 13.89 C-1.45 3.81, 3.62 -1.39, 13.89 0 M0 13.89 C-0.94 5.42, 3.66 -0.33, 13.89 0" stroke="#228be6" stroke-width="2" fill="none"></path></g><g transform="translate(707.4647928873699 84.4228515625) rotate(0 33.19197082519531 10)"><text x="0" y="14.016" font-family="Virgil, Segoe UI Emoji" font-size="16px" fill="#343a40" text-anchor="start" style="white-space: pre;" direction="ltr" dominant-baseline="alphabetic">Property</text></g><g stroke-linecap="round" transform="translate(907.1784973144531 113.80696614583331) rotate(0 29.732421875 27.78125)"><path d="M13.89 0 C25.47 2.21, 35.01 0.72, 45.57 0 M13.89 0 C27.3 0.74, 39.92 -0.97, 45.57 0 M45.57 0 C55.69 1.51, 58.53 3.29, 59.46 13.89 M45.57 0 C52.82 2.3, 59.43 6.24, 59.46 13.89 M59.46 13.89 C58.04 25.6, 60.25 34.64, 59.46 41.67 M59.46 13.89 C60.42 23.81, 59.78 31.16, 59.46 41.67 M59.46 41.67 C59.14 50.14, 54.12 54.8, 45.57 55.56 M59.46 41.67 C57.34 48.87, 56.21 55.65, 45.57 55.56 M45.57 55.56 C33.55 54.22, 22.39 56.1, 13.89 55.56 M45.57 55.56 C34.54 55.81, 23.72 55.23, 13.89 55.56 M13.89 55.56 C3.64 57.4, -1.42 52.09, 0 41.67 M13.89 55.56 C6.44 57.21, 0.5 50.42, 0 41.67 M0 41.67 C-1.97 37.67, -0.7 29.2, 0 13.89 M0 41.67 C0.94 31.26, -0.57 22.98, 0 13.89 M0 13.89 C0.86 5.23, 4.49 -1.56, 13.89 0 M0 13.89 C0.39 6.33, 5.22 0.41, 13.89 0" stroke="#d0bfff" stroke-width="2" fill="none"></path></g><g transform="translate(908.6549377441406 84.24055989583331) rotate(0 28.2559814453125 10)"><text x="0" y="14.016" font-family="Virgil, Segoe UI Emoji" font-size="16px" fill="#343a40" text-anchor="start" style="white-space: pre;" direction="ltr" dominant-baseline="alphabetic">Variant</text></g><g stroke-linecap="round" transform="translate(997.7439270019531 113.80696614583331) rotate(0 29.732421875 27.78125)"><path d="M13.89 0 C28.42 -1.14, 40.31 1.56, 45.57 0 M13.89 0 C26.79 1, 38.38 -0.43, 45.57 0 M45.57 0 C53.08 2, 59.43 6.03, 59.46 13.89 M45.57 0 C56.1 -0.21, 58.93 3.02, 59.46 13.89 M59.46 13.89 C60.09 24.9, 57.72 37.58, 59.46 41.67 M59.46 13.89 C59.39 24.24, 59.19 35.01, 59.46 41.67 M59.46 41.67 C57.62 49.14, 56.03 55.64, 45.57 55.56 M59.46 41.67 C60.85 49.05, 53.18 54.86, 45.57 55.56 M45.57 55.56 C38.9 57.1, 30.47 56.04, 13.89 55.56 M45.57 55.56 C34.99 56.36, 24.7 56.02, 13.89 55.56 M13.89 55.56 C6.21 56.99, 0.43 50.49, 0 41.67 M13.89 55.56 C2.41 56.02, 1.75 48.73, 0 41.67 M0 41.67 C0.89 29.68, 0.34 21.93, 0 13.89 M0 41.67 C0.64 36.33, 0.14 29.6, 0 13.89 M0 13.89 C0.34 6.11, 5.15 0.35, 13.89 0 M0 13.89 C1.81 2.45, 3.95 1.69, 13.89 0" stroke="#9775fa" stroke-width="2" fill="none"></path></g><g transform="translate(1003.8603591918945 84.24055989583331) rotate(0 23.615989685058594 10)"><text x="0" y="14.016" font-family="Virgil, Segoe UI Emoji" font-size="16px" fill="#343a40" text-anchor="start" style="white-space: pre;" direction="ltr" dominant-baseline="alphabetic">State</text></g><g stroke-linecap="round" transform="translate(1084.941017150879 113.80696614583331) rotate(0 29.732421875 27.78125)"><path d="M13.89 0 C23.58 1.44, 27.97 0.6, 45.57 0 M13.89 0 C24.91 1.21, 37.67 0.91, 45.57 0 M45.57 0 C55.93 -0.18, 59 3.23, 59.46 13.89 M45.57 0 C56.96 0.93, 60.64 5.22, 59.46 13.89 M59.46 13.89 C60.94 22.98, 57.54 30.52, 59.46 41.67 M59.46 13.89 C58.44 20.22, 59.96 28.39, 59.46 41.67 M59.46 41.67 C60.67 49.29, 53.4 54.96, 45.57 55.56 M59.46 41.67 C58.19 50.53, 55.72 56.8, 45.57 55.56 M45.57 55.56 C34.2 56.75, 21.31 54.62, 13.89 55.56 M45.57 55.56 C33.94 56.46, 20.95 55.52, 13.89 55.56 M13.89 55.56 C2.7 55.96, 1.52 49.02, 0 41.67 M13.89 55.56 C6.53 54.82, -1.35 51.85, 0 41.67 M0 41.67 C-1.97 33.73, 0.37 29.67, 0 13.89 M0 41.67 C0.19 33.24, 0.28 23.51, 0 13.89 M0 13.89 C1.57 2.73, 4.04 1.47, 13.89 0 M0 13.89 C-1.93 2.59, 3.07 0.54, 13.89 0" stroke="#7950f2" stroke-width="2" fill="none"></path></g><g transform="translate(1093.9774475097656 84.24055989583331) rotate(0 20.69599151611328 10)"><text x="0" y="14.016" font-family="Virgil, Segoe UI Emoji" font-size="16px" fill="#343a40" text-anchor="start" style="white-space: pre;" direction="ltr" dominant-baseline="alphabetic">Scale</text></g><g stroke-linecap="round" transform="translate(18.553497314453125 114.02311197916663) rotate(0 29.732421875 27.78125)"><path d="M13.89 0 C26.36 -0.01, 36.44 -1.6, 45.57 0 M13.89 0 C23.77 0.45, 32.24 0.69, 45.57 0 M45.57 0 C55.57 -1.64, 59.04 3.01, 59.46 13.89 M45.57 0 C55.7 1, 58.49 5.13, 59.46 13.89 M59.46 13.89 C60.03 20.18, 60.9 26.41, 59.46 41.67 M59.46 13.89 C60.63 22.35, 59.57 33.08, 59.46 41.67 M59.46 41.67 C58.04 51.29, 54.55 55.94, 45.57 55.56 M59.46 41.67 C57.55 51.8, 56.13 56.47, 45.57 55.56 M45.57 55.56 C31.39 56.93, 22.27 56.49, 13.89 55.56 M45.57 55.56 C33.3 56.11, 21.59 56.64, 13.89 55.56 M13.89 55.56 C3.01 54.13, -0.07 49.7, 0 41.67 M13.89 55.56 C3.23 56.39, -0.45 52.3, 0 41.67 M0 41.67 C-1.66 36.08, -1.84 27.27, 0 13.89 M0 41.67 C1.11 33.33, 0 25.88, 0 13.89 M0 13.89 C1.75 4.97, 4.25 1.84, 13.89 0 M0 13.89 C1.58 5.64, 6.74 -1.69, 13.89 0" stroke="#ffa94d" stroke-width="2" fill="none"></path></g><g transform="translate(21.365936279296875 84.45670572916663) rotate(0 26.91998291015625 10)"><text x="0" y="14.016" font-family="Virgil, Segoe UI Emoji" font-size="16px" fill="#343a40" text-anchor="start" style="white-space: pre;" direction="ltr" dominant-baseline="alphabetic">System</text></g><g stroke-linecap="round" transform="translate(109.11892700195312 114.02311197916663) rotate(0 29.732421875 27.78125)"><path d="M13.89 0 C23.54 1.63, 34.44 1.76, 45.57 0 M13.89 0 C25.57 -1.08, 36.3 -1.06, 45.57 0 M45.57 0 C55.58 0.87, 58.62 5.06, 59.46 13.89 M45.57 0 C52.9 0.56, 57.25 5.21, 59.46 13.89 M59.46 13.89 C60.33 24.35, 57.68 33.25, 59.46 41.67 M59.46 13.89 C58.72 20.14, 59.29 26.22, 59.46 41.67 M59.46 41.67 C57.8 51.68, 55.96 56.35, 45.57 55.56 M59.46 41.67 C61.72 49.79, 54.39 53.75, 45.57 55.56 M45.57 55.56 C35.31 57.58, 23.68 54.93, 13.89 55.56 M45.57 55.56 C34.35 55.1, 24.7 55.21, 13.89 55.56 M13.89 55.56 C3.41 56.28, -0.39 52.12, 0 41.67 M13.89 55.56 C3.29 56.29, 0.39 49.12, 0 41.67 M0 41.67 C-0.42 30.17, 2.08 23.63, 0 13.89 M0 41.67 C0.94 36.12, -0.13 31.15, 0 13.89 M0 13.89 C1.37 5.51, 6.46 -1.47, 13.89 0 M0 13.89 C-2.11 6.9, 4.1 2.05, 13.89 0" stroke="#fd7e14" stroke-width="2" fill="none"></path></g><g transform="translate(114.65135955810547 84.45670572916663) rotate(0 24.199989318847656 10)"><text x="0" y="14.016" font-family="Virgil, Segoe UI Emoji" font-size="16px" fill="#343a40" text-anchor="start" style="white-space: pre;" direction="ltr" dominant-baseline="alphabetic">Theme</text></g><g stroke-linecap="round" transform="translate(318.73775227864587 113.7158203125) rotate(0 29.732421875 27.78125)"><path d="M13.89 0 C27.08 1.37, 35.88 -1.17, 45.57 0 M13.89 0 C23.92 0.36, 34.33 -0.4, 45.57 0 M45.57 0 C55.31 -1.32, 59.04 5.59, 59.46 13.89 M45.57 0 C56.91 -0.7, 58.12 5.01, 59.46 13.89 M59.46 13.89 C58.7 23.01, 57.48 35.01, 59.46 41.67 M59.46 13.89 C59.36 23.59, 60.04 35.25, 59.46 41.67 M59.46 41.67 C58.92 49.3, 54.33 56.39, 45.57 55.56 M59.46 41.67 C58.77 52.37, 54.41 57.47, 45.57 55.56 M45.57 55.56 C38.74 55.56, 30.19 55.04, 13.89 55.56 M45.57 55.56 C35.18 55.62, 25.4 55.52, 13.89 55.56 M13.89 55.56 C2.7 53.75, 1.68 51.93, 0 41.67 M13.89 55.56 C6.45 55.63, 1.39 53.08, 0 41.67 M0 41.67 C-1.88 33.53, 0.27 26.44, 0 13.89 M0 41.67 C-0.55 32.85, 0.83 22.6, 0 13.89 M0 13.89 C0.76 4.8, 6.04 -0.59, 13.89 0 M0 13.89 C0.57 5.31, 5.37 1.75, 13.89 0" stroke="#69db7c" stroke-width="2" fill="none"></path></g><g transform="translate(321.5501912434896 84.1494140625) rotate(0 29.56798553466797 10)"><text x="0" y="14.016" font-family="Virgil, Segoe UI Emoji" font-size="16px" fill="#343a40" text-anchor="start" style="white-space: pre;" direction="ltr" dominant-baseline="alphabetic">Element</text></g></svg>